{
    "asset" : {
        "generator" : "Khronos glTF Blender I/O v1.8.19",
        "version" : "2.0"
    },
    "scene" : 0,
    "scenes" : [
        {
            "name" : "Scene",
            "nodes" : [
                0
            ]
        }
    ],
    "nodes" : [
        {
            "mesh" : 0,
            "name" : "ChrsitmasLights",
            "rotation" : [
                0.7071068286895752,
                0,
                0,
                0.7071067094802856
            ],
            "scale" : [
                0.009999998845160007,
                0.009999998845160007,
                0.009999998845160007
            ]
        }
    ],
    "meshes" : [
        {
            "name" : "Scene.029",
            "primitives" : [
                {
                    "attributes" : {
                        "POSITION" : 0,
                        "NORMAL" : 1,
                        "TEXCOORD_0" : 2,
                        "COLOR_0" : 3
                    },
                    "indices" : 4
                },
                {
                    "attributes" : {
                        "POSITION" : 5,
                        "NORMAL" : 6,
                        "TEXCOORD_0" : 7,
                        "COLOR_0" : 8
                    },
                    "indices" : 9
                }
            ]
        }
    ],
    "accessors" : [
        {
            "bufferView" : 0,
            "componentType" : 5126,
            "count" : 5724,
            "max" : [
                59.47116470336914,
                67.32231140136719,
                -44.93735885620117
            ],
            "min" : [
                -61.6597785949707,
                -61.93296432495117,
                -192.7855987548828
            ],
            "type" : "VEC3"
        },
        {
            "bufferView" : 1,
            "componentType" : 5126,
            "count" : 5724,
            "type" : "VEC3"
        },
        {
            "bufferView" : 2,
            "componentType" : 5126,
            "count" : 5724,
            "type" : "VEC2"
        },
        {
            "bufferView" : 3,
            "componentType" : 5123,
            "count" : 5724,
            "normalized" : true,
            "type" : "VEC4"
        },
        {
            "bufferView" : 4,
            "componentType" : 5123,
            "count" : 17808,
            "type" : "SCALAR"
        },
        {
            "bufferView" : 5,
            "componentType" : 5126,
            "count" : 47232,
            "max" : [
                58.57691955566406,
                67.06045532226562,
                -44.52143859863281
            ],
            "min" : [
                -60.76963424682617,
                -61.278743743896484,
                -192.58734130859375
            ],
            "type" : "VEC3"
        },
        {
            "bufferView" : 6,
            "componentType" : 5126,
            "count" : 47232,
            "type" : "VEC3"
        },
        {
            "bufferView" : 7,
            "componentType" : 5126,
            "count" : 47232,
            "type" : "VEC2"
        },
        {
            "bufferView" : 8,
            "componentType" : 5123,
            "count" : 47232,
            "normalized" : true,
            "type" : "VEC4"
        },
        {
            "bufferView" : 9,
            "componentType" : 5123,
            "count" : 257940,
            "type" : "SCALAR"
        }
    ],
    "bufferViews" : [
        {
            "buffer" : 0,
            "byteLength" : 68688,
            "byteOffset" : 0
        },
        {
            "buffer" : 0,
            "byteLength" : 68688,
            "byteOffset" : 68688
        },
        {
            "buffer" : 0,
            "byteLength" : 45792,
            "byteOffset" : 137376
        },
        {
            "buffer" : 0,
            "byteLength" : 45792,
            "byteOffset" : 183168
        },
        {
            "buffer" : 0,
            "byteLength" : 35616,
            "byteOffset" : 228960
        },
        {
            "buffer" : 0,
            "byteLength" : 566784,
            "byteOffset" : 264576
        },
        {
            "buffer" : 0,
            "byteLength" : 566784,
            "byteOffset" : 831360
        },
        {
            "buffer" : 0,
            "byteLength" : 377856,
            "byteOffset" : 1398144
        },
        {
            "buffer" : 0,
            "byteLength" : 377856,
            "byteOffset" : 1776000
        },
        {
            "buffer" : 0,
            "byteLength" : 515880,
            "byteOffset" : 2153856
        }
    ],
    "buffers" : [
        {
            "byteLength" : 2669736,
            "uri" : "data:application/octet-stream;base64,"
        }
    ]
}
