# Blender 3.1.0
# www.blender.org
o Dot
v 0.000398 -0.047185 0.153150
v -0.009045 -0.046233 0.153154
v -0.017842 -0.043501 0.153158
v -0.025802 -0.039179 0.153161
v -0.032739 -0.033456 0.153164
v -0.038463 -0.026519 0.153166
v -0.042785 -0.018558 0.153168
v -0.045516 -0.009762 0.153169
v -0.046469 -0.000319 0.153170
v -0.045516 0.009124 0.153169
v -0.042785 0.017921 0.153168
v -0.038463 0.025881 0.153166
v -0.032739 0.032818 0.153164
v -0.025802 0.038542 0.153161
v -0.017842 0.042864 0.153158
v -0.009045 0.045595 0.153154
v 0.000398 0.046548 0.153150
v 0.009841 0.045595 0.153146
v 0.018637 0.042864 0.153142
v 0.026598 0.038542 0.153139
v 0.033535 0.032818 0.153136
v 0.039258 0.025881 0.153134
v 0.043580 0.017921 0.153132
v 0.046312 0.009124 0.153131
v 0.047264 -0.000319 0.153130
v 0.046312 -0.009762 0.153131
v 0.043580 -0.018558 0.153132
v 0.039258 -0.026519 0.153134
v 0.033535 -0.033456 0.153136
v 0.026598 -0.039179 0.153139
v 0.018637 -0.043501 0.153142
v 0.009841 -0.046233 0.153146
v 0.000385 -0.047499 0.122406
v 0.000397 -0.047499 0.152400
v -0.009121 -0.046540 0.122410
v -0.009108 -0.046540 0.152404
v -0.017977 -0.043790 0.122413
v -0.017964 -0.043790 0.152408
v -0.025991 -0.039439 0.122417
v -0.025978 -0.039439 0.152411
v -0.032974 -0.033678 0.122420
v -0.032961 -0.033678 0.152414
v -0.038736 -0.026695 0.122422
v -0.038723 -0.026695 0.152417
v -0.043087 -0.018680 0.122424
v -0.043074 -0.018680 0.152418
v -0.045837 -0.009825 0.122425
v -0.045824 -0.009825 0.152420
v -0.046796 -0.000319 0.122425
v -0.046783 -0.000319 0.152420
v -0.045837 0.009187 0.122425
v -0.045824 0.009187 0.152420
v -0.043087 0.018043 0.122424
v -0.043074 0.018043 0.152418
v -0.038736 0.026057 0.122422
v -0.038723 0.026057 0.152417
v -0.032974 0.033040 0.122420
v -0.032961 0.033040 0.152414
v -0.025991 0.038802 0.122417
v -0.025978 0.038802 0.152411
v -0.017977 0.043153 0.122413
v -0.017964 0.043153 0.152408
v -0.009121 0.045903 0.122410
v -0.009108 0.045903 0.152404
v 0.000385 0.046862 0.122406
v 0.000397 0.046862 0.152400
v 0.009891 0.045903 0.122402
v 0.009903 0.045903 0.152396
v 0.018746 0.043153 0.122398
v 0.018759 0.043153 0.152393
v 0.026761 0.038802 0.122395
v 0.026773 0.038802 0.152389
v 0.033744 0.033040 0.122392
v 0.033756 0.033040 0.152386
v 0.039505 0.026057 0.122389
v 0.039518 0.026057 0.152384
v 0.043857 0.018043 0.122388
v 0.043869 0.018043 0.152382
v 0.046607 0.009187 0.122386
v 0.046619 0.009187 0.152381
v 0.047565 -0.000319 0.122386
v 0.047578 -0.000319 0.152380
v 0.046607 -0.009825 0.122386
v 0.046619 -0.009825 0.152381
v 0.043857 -0.018680 0.122387
v 0.043869 -0.018680 0.152382
v 0.039505 -0.026695 0.122389
v 0.039518 -0.026695 0.152384
v 0.033744 -0.033678 0.122392
v 0.033756 -0.033678 0.152386
v 0.026761 -0.039439 0.122395
v 0.026773 -0.039439 0.152389
v 0.018746 -0.043790 0.122398
v 0.018759 -0.043790 0.152393
v 0.009891 -0.046540 0.122402
v 0.009903 -0.046540 0.152396
v 0.000397 -0.047499 0.152400
v 0.000398 -0.047185 0.153150
v -0.009108 -0.046540 0.152404
v -0.009045 -0.046233 0.153154
v -0.017964 -0.043790 0.152408
v -0.017842 -0.043501 0.153158
v -0.025978 -0.039439 0.152411
v -0.025802 -0.039179 0.153161
v -0.032961 -0.033678 0.152414
v -0.032739 -0.033456 0.153164
v -0.038723 -0.026695 0.152417
v -0.038463 -0.026519 0.153166
v -0.043074 -0.018680 0.152418
v -0.042785 -0.018558 0.153168
v -0.045824 -0.009825 0.152420
v -0.045516 -0.009762 0.153169
v -0.046783 -0.000319 0.152420
v -0.046469 -0.000319 0.153170
v -0.045824 0.009187 0.152420
v -0.045516 0.009124 0.153169
v -0.043074 0.018043 0.152418
v -0.042785 0.017921 0.153168
v -0.038723 0.026057 0.152417
v -0.038463 0.025881 0.153166
v -0.032961 0.033040 0.152414
v -0.032739 0.032818 0.153164
v -0.025978 0.038802 0.152411
v -0.025802 0.038542 0.153161
v -0.017964 0.043153 0.152408
v -0.017842 0.042864 0.153158
v -0.009108 0.045903 0.152404
v -0.009045 0.045595 0.153154
v 0.000397 0.046862 0.152400
v 0.000398 0.046548 0.153150
v 0.009903 0.045903 0.152396
v 0.009841 0.045595 0.153146
v 0.018759 0.043153 0.152393
v 0.018637 0.042864 0.153142
v 0.026773 0.038802 0.152389
v 0.026598 0.038542 0.153139
v 0.033756 0.033040 0.152386
v 0.033535 0.032818 0.153136
v 0.039518 0.026057 0.152384
v 0.039258 0.025881 0.153134
v 0.043869 0.018043 0.152382
v 0.043580 0.017921 0.153132
v 0.046619 0.009187 0.152381
v 0.046312 0.009124 0.153131
v 0.047578 -0.000319 0.152380
v 0.047264 -0.000319 0.153130
v 0.046619 -0.009825 0.152381
v 0.046312 -0.009762 0.153131
v 0.043869 -0.018680 0.152382
v 0.043580 -0.018558 0.153132
v 0.039518 -0.026695 0.152384
v 0.039258 -0.026519 0.153134
v 0.033756 -0.033678 0.152386
v 0.033535 -0.033456 0.153136
v 0.026773 -0.039439 0.152389
v 0.026598 -0.039179 0.153139
v 0.018759 -0.043790 0.152393
v 0.018637 -0.043501 0.153142
v 0.009903 -0.046540 0.152396
v 0.009841 -0.046233 0.153146
vn 0.0003 -0.0000 0.7499
vn -0.0000 -0.3124 -0.0000
vn -0.0623 -0.3062 -0.0000
vn -0.1215 -0.2879 0.0001
vn -0.1748 -0.2590 0.0001
vn -0.2209 -0.2209 0.0001
vn -0.2590 -0.1748 0.0001
vn -0.2879 -0.1215 0.0001
vn -0.3062 -0.0623 0.0001
vn -0.3124 -0.0000 0.0001
vn -0.3062 0.0623 0.0001
vn -0.2879 0.1215 0.0001
vn -0.2590 0.1748 0.0001
vn -0.2209 0.2209 0.0001
vn -0.1748 0.2590 0.0001
vn -0.1215 0.2879 0.0001
vn -0.0623 0.3062 -0.0000
vn -0.0000 0.3124 -0.0000
vn 0.0623 0.3062 -0.0000
vn 0.1215 0.2879 -0.0001
vn 0.1748 0.2590 -0.0001
vn 0.2209 0.2209 -0.0001
vn 0.2590 0.1748 -0.0001
vn 0.2879 0.1215 -0.0001
vn 0.3062 0.0623 -0.0001
vn 0.3124 -0.0000 -0.0001
vn 0.3062 -0.0623 -0.0001
vn 0.2879 -0.1215 -0.0001
vn 0.2590 -0.1748 -0.0001
vn 0.2209 -0.2209 -0.0001
vn 0.1748 -0.2590 -0.0001
vn 0.1215 -0.2879 -0.0001
vn 0.0623 -0.3062 -0.0000
vn 0.0002 -0.2204 0.5316
vn -0.0437 -0.2159 0.5316
vn -0.0854 -0.2031 0.5315
vn -0.1231 -0.1827 0.5315
vn -0.1556 -0.1559 0.5315
vn -0.1825 -0.1233 0.5315
vn -0.2028 -0.0857 0.5316
vn -0.2157 -0.0440 0.5317
vn -0.2201 -0.0000 0.5317
vn -0.2157 0.0440 0.5317
vn -0.2028 0.0857 0.5316
vn -0.1825 0.1233 0.5315
vn -0.1556 0.1559 0.5315
vn -0.1231 0.1827 0.5315
vn -0.0854 0.2031 0.5315
vn -0.0437 0.2159 0.5316
vn 0.0002 0.2204 0.5316
vn 0.0442 0.2159 0.5315
vn 0.0859 0.2031 0.5315
vn 0.1235 0.1827 0.5314
vn 0.1561 0.1559 0.5314
vn 0.1829 0.1233 0.5314
vn 0.2033 0.0857 0.5314
vn 0.2162 0.0440 0.5315
vn 0.2206 -0.0000 0.5315
vn 0.2162 -0.0440 0.5315
vn 0.2033 -0.0857 0.5314
vn 0.1829 -0.1233 0.5314
vn 0.1561 -0.1559 0.5314
vn 0.1235 -0.1827 0.5314
vn 0.0859 -0.2031 0.5315
vn 0.0442 -0.2159 0.5315
s 1
f 16//1 18//1 17//1
f 15//1 18//1 16//1
f 15//1 19//1 18//1
f 14//1 19//1 15//1
f 14//1 20//1 19//1
f 13//1 20//1 14//1
f 13//1 21//1 20//1
f 12//1 21//1 13//1
f 12//1 22//1 21//1
f 11//1 22//1 12//1
f 11//1 23//1 22//1
f 10//1 23//1 11//1
f 10//1 24//1 23//1
f 9//1 24//1 10//1
f 9//1 25//1 24//1
f 8//1 25//1 9//1
f 8//1 26//1 25//1
f 7//1 26//1 8//1
f 7//1 27//1 26//1
f 6//1 27//1 7//1
f 6//1 28//1 27//1
f 5//1 28//1 6//1
f 5//1 29//1 28//1
f 4//1 29//1 5//1
f 4//1 30//1 29//1
f 3//1 30//1 4//1
f 3//1 31//1 30//1
f 2//1 31//1 3//1
f 2//1 32//1 31//1
f 1//1 32//1 2//1
f 34//2 36//3 35//3 33//2
f 36//3 38//4 37//4 35//3
f 38//4 40//5 39//5 37//4
f 40//5 42//6 41//6 39//5
f 42//6 44//7 43//7 41//6
f 44//7 46//8 45//8 43//7
f 46//8 48//9 47//9 45//8
f 48//9 50//10 49//10 47//9
f 50//10 52//11 51//11 49//10
f 52//11 54//12 53//12 51//11
f 54//12 56//13 55//13 53//12
f 56//13 58//14 57//14 55//13
f 58//14 60//15 59//15 57//14
f 60//15 62//16 61//16 59//15
f 62//16 64//17 63//17 61//16
f 64//17 66//18 65//18 63//17
f 66//18 68//19 67//19 65//18
f 68//19 70//20 69//20 67//19
f 70//20 72//21 71//21 69//20
f 72//21 74//22 73//22 71//21
f 74//22 76//23 75//23 73//22
f 76//23 78//24 77//24 75//23
f 78//24 80//25 79//25 77//24
f 80//25 82//26 81//26 79//25
f 82//26 84//27 83//27 81//26
f 84//27 86//28 85//28 83//27
f 86//28 88//29 87//29 85//28
f 88//29 90//30 89//30 87//29
f 90//30 92//31 91//31 89//30
f 92//31 94//32 93//32 91//31
f 94//32 96//33 95//33 93//32
f 96//33 34//2 33//2 95//33
f 98//34 100//35 99//35 97//34
f 100//35 102//36 101//36 99//35
f 102//36 104//37 103//37 101//36
f 104//37 106//38 105//38 103//37
f 106//38 108//39 107//39 105//38
f 108//39 110//40 109//40 107//39
f 110//40 112//41 111//41 109//40
f 112//41 114//42 113//42 111//41
f 114//42 116//43 115//43 113//42
f 116//43 118//44 117//44 115//43
f 118//44 120//45 119//45 117//44
f 120//45 122//46 121//46 119//45
f 122//46 124//47 123//47 121//46
f 124//47 126//48 125//48 123//47
f 126//48 128//49 127//49 125//48
f 128//49 130//50 129//50 127//49
f 130//50 132//51 131//51 129//50
f 132//51 134//52 133//52 131//51
f 134//52 136//53 135//53 133//52
f 136//53 138//54 137//54 135//53
f 138//54 140//55 139//55 137//54
f 140//55 142//56 141//56 139//55
f 142//56 144//57 143//57 141//56
f 144//57 146//58 145//58 143//57
f 146//58 148//59 147//59 145//58
f 148//59 150//60 149//60 147//59
f 150//60 152//61 151//61 149//60
f 152//61 154//62 153//62 151//61
f 154//62 156//63 155//63 153//62
f 156//63 158//64 157//64 155//63
f 158//64 160//65 159//65 157//64
f 160//65 98//34 97//34 159//65
