# Blender 3.6.4
# www.blender.org
mtllib rightlaser.mtl
o rightlaser.001
v -0.056853 150.000031 0.099989
v -0.082947 -150.000015 -0.099989
v -0.056853 -150.000031 0.100011
v 4.780099 165.906036 -0.242542
v -4.780099 -165.906036 -0.242516
v 4.780099 -165.906036 -0.242516
v 0.082947 150.000015 -0.100011
v 0.056853 -150.000031 0.100011
v 0.082947 -150.000015 -0.099989
v 0.056853 150.000031 0.099989
v -0.082947 150.000015 -0.100011
v -4.780099 165.906036 -0.242542
vn -0.9916 -0.0000 0.1294
vn -0.0000 -0.0000 1.0000
vn 0.9916 -0.0000 0.1294
vn -0.0000 -0.0000 -1.0000
vt 0.760463 0.006970
vt 0.760176 0.015416
vt 0.760463 0.015416
vt 0.749735 0.498774
vt 0.626349 0.001458
vt 0.749735 0.001458
vt 0.762000 0.006970
vt 0.761713 0.015416
vt 0.762000 0.015416
vt 0.761713 0.006970
vt 0.760176 0.006970
vt 0.626349 0.498774
s 0
usemtl Default_OBJ.002
f 1/1/1 2/2/1 3/3/1
f 4/4/2 5/5/2 6/6/2
f 7/7/3 8/8/3 9/9/3
f 10/10/2 3/3/2 8/8/2
f 1/1/1 11/11/1 2/2/1
f 4/4/2 12/12/2 5/5/2
f 7/7/3 10/10/3 8/8/3
f 10/10/2 1/1/2 3/3/2
f 7/7/4 9/9/4 2/2/4 11/11/4
