# Blender 3.1.0
# www.blender.org
mtllib sliderhead.mtl
o block
v -0.147689 0.111214 0.111214
v -0.144271 0.126107 -0.110872
v -0.147689 0.111214 -0.111214
v -0.126107 0.144271 0.110872
v -0.137451 0.137451 -0.110645
v -0.137451 0.137451 0.110645
v -0.141146 0.124740 0.124740
v -0.144271 0.126107 0.110872
v -0.134961 0.134961 0.123828
v -0.144271 0.110872 0.126107
v -0.134961 0.123828 0.134961
v -0.131597 0.131597 0.131597
v 0.111214 0.111214 -0.147689
v -0.141146 0.124740 -0.124740
v -0.144271 0.110872 -0.126107
v -0.134961 0.123828 -0.134961
v -0.137451 0.110645 -0.137451
v -0.134961 0.134961 -0.123828
v -0.131597 0.131597 -0.131597
v 0.147689 0.111214 -0.111214
v 0.144271 0.110872 -0.126107
v -0.110872 0.144271 0.126107
v 0.111214 0.147689 0.111214
v -0.111214 0.147689 0.111214
v -0.111214 0.111214 -0.147689
v -0.124740 0.124740 -0.141146
v -0.110872 0.126107 -0.144271
v -0.123828 0.134961 -0.134961
v -0.110645 0.137451 -0.137451
v -0.126107 0.110872 -0.144271
v 0.126107 0.144271 0.110872
v 0.137451 0.137451 -0.110645
v 0.126107 0.144271 -0.110872
v 0.124740 0.124740 -0.141146
v 0.126107 0.110872 -0.144271
v 0.134961 0.123828 -0.134961
v 0.137451 0.110645 -0.137451
v 0.110872 0.126107 -0.144271
v 0.123828 0.134961 -0.134961
v 0.131597 0.131597 -0.131597
v -0.126107 0.144271 -0.110872
v 0.110872 0.126107 0.144271
v -0.110645 0.137451 0.137451
v -0.110872 0.126107 0.144271
v 0.111214 0.111214 0.147689
v -0.111214 0.111214 0.147689
v 0.111214 0.147689 -0.111214
v 0.141146 0.124740 -0.124740
v 0.144271 0.126107 -0.110872
v 0.134961 0.134961 -0.123828
v -0.137451 0.110645 0.137451
v 0.147689 0.111214 0.111214
v 0.141146 0.124740 0.124740
v 0.144271 0.110872 0.126107
v 0.134961 0.123828 0.134961
v 0.137451 0.110645 0.137451
v 0.144271 0.126107 0.110872
v 0.134961 0.134961 0.123828
v 0.131597 0.131597 0.131597
v 0.124740 0.124740 0.141146
v 0.123828 0.134961 0.134961
v 0.110645 0.137451 0.137451
v 0.126107 0.110872 0.144271
v 0.110872 0.144271 -0.126107
v -0.111214 0.147689 -0.111214
v -0.124740 0.124740 0.141146
v -0.126107 0.110872 0.144271
v -0.123828 0.134961 0.134961
v -0.110872 0.144271 -0.126107
v 0.110645 0.137451 -0.137451
v 0.124740 0.141146 -0.124740
v -0.124740 0.141146 -0.124740
v -0.124740 0.141146 0.124740
v 0.110872 0.144271 0.126107
v 0.124740 0.141146 0.124740
v 0.137451 0.137451 0.110645
v 0.000000 0.000000 -0.147689
v 0.111214 0.000000 -0.147689
v 0.145977 0.000000 -0.118672
v 0.144271 0.000000 -0.126107
v 0.140858 0.000000 -0.131785
v -0.145977 0.000000 -0.118672
v -0.144271 0.000000 -0.126107
v -0.140858 0.000000 -0.131785
v -0.137451 0.000000 -0.137451
v 0.000000 -0.000000 0.147689
v -0.111214 -0.000000 0.147689
v -0.140858 -0.000000 0.131785
v -0.144271 -0.000000 0.126107
v 0.144271 -0.000000 0.126107
v 0.145977 -0.000000 0.118672
v 0.131785 0.000000 -0.140858
v 0.126107 0.000000 -0.144271
v -0.126107 0.000000 -0.144271
v -0.131785 0.000000 -0.140858
v 0.131785 -0.000000 0.140858
v 0.126107 -0.000000 0.144271
v -0.147689 0.000000 0.000000
v -0.147689 -0.000000 0.111214
v -0.118672 -0.000000 0.145977
v -0.118672 0.000000 -0.145977
v -0.111214 0.000000 -0.147689
v 0.118672 -0.000000 0.145977
v 0.111214 -0.000000 0.147689
v 0.147689 0.000000 0.000000
v 0.147689 0.000000 -0.111214
v 0.118672 0.000000 -0.145977
v 0.140858 -0.000000 0.131785
v -0.145977 -0.000000 0.118672
v -0.131785 -0.000000 0.140858
v -0.137451 -0.000000 0.137451
v 0.137451 0.000000 -0.137451
v -0.147689 0.000000 -0.111214
v 0.147689 -0.000000 0.111214
v 0.137451 -0.000000 0.137451
v -0.126107 -0.000000 0.144271
vn -0.9868 0.1145 0.1145
vn -0.9189 0.3755 -0.1206
vn -0.9868 0.1145 -0.1145
vn -0.3755 0.9189 0.1206
vn -0.7014 0.7014 -0.1263
vn -0.7014 0.7014 0.1263
vn -0.8501 0.3723 0.3723
vn -0.9189 0.3755 0.1206
vn -0.6551 0.6551 0.3764
vn -0.9189 0.1206 0.3755
vn -0.6551 0.3764 0.6551
vn -0.5774 0.5774 0.5774
vn 0.1126 -0.0000 -0.9936
vn -0.0000 -0.0000 -1.0000
vn 0.1145 0.1145 -0.9868
vn -0.8501 0.3723 -0.3723
vn -0.9189 0.1206 -0.3755
vn -0.6551 0.3764 -0.6551
vn -0.7014 0.1263 -0.7014
vn -0.6551 0.6551 -0.3764
vn -0.5774 0.5774 -0.5774
vn 0.9189 0.1206 -0.3755
vn 0.9868 0.1145 -0.1145
vn 0.9747 -0.0000 -0.2237
vn 0.9274 -0.0000 -0.3741
vn 0.8570 -0.0000 -0.5153
vn -0.1206 0.9189 0.3755
vn 0.1145 0.9868 0.1145
vn -0.1145 0.9868 0.1145
vn -0.9747 -0.0000 -0.2237
vn -0.9274 -0.0000 -0.3741
vn -0.1145 0.1145 -0.9868
vn -0.3723 0.3723 -0.8501
vn -0.1206 0.3755 -0.9189
vn -0.3764 0.6551 -0.6551
vn -0.1263 0.7014 -0.7014
vn -0.3755 0.1206 -0.9189
vn 0.3755 0.9189 0.1206
vn 0.7014 0.7014 -0.1263
vn 0.3755 0.9189 -0.1206
vn 0.3723 0.3723 -0.8501
vn 0.3755 0.1206 -0.9189
vn 0.6551 0.3764 -0.6551
vn 0.7014 0.1263 -0.7014
vn 0.1206 0.3755 -0.9189
vn 0.3764 0.6551 -0.6551
vn 0.5774 0.5774 -0.5774
vn -0.3755 0.9189 -0.1206
vn -0.8570 -0.0000 -0.5153
vn -0.7071 -0.0000 -0.7071
vn 0.1206 0.3755 0.9189
vn -0.1263 0.7014 0.7014
vn -0.1206 0.3755 0.9189
vn -0.1145 0.1145 0.9868
vn -0.1126 -0.0000 0.9936
vn -0.0000 -0.0000 1.0000
vn 0.1145 0.1145 0.9868
vn 0.1145 0.9868 -0.1145
vn 0.8501 0.3723 -0.3723
vn 0.9189 0.3755 -0.1206
vn 0.6551 0.6551 -0.3764
vn -0.7014 0.1263 0.7014
vn -0.9274 -0.0000 0.3741
vn -0.8570 -0.0000 0.5153
vn 0.9868 0.1145 0.1145
vn 0.8501 0.3723 0.3723
vn 0.9189 0.1206 0.3755
vn 0.6551 0.3764 0.6551
vn 0.7014 0.1263 0.7014
vn 0.9189 0.3755 0.1206
vn 0.6551 0.6551 0.3764
vn 0.5774 0.5774 0.5774
vn 0.9274 -0.0000 0.3741
vn 0.9747 -0.0000 0.2237
vn 0.5153 -0.0000 -0.8570
vn 0.3741 -0.0000 -0.9274
vn -0.3741 -0.0000 -0.9274
vn -0.5153 -0.0000 -0.8570
vn 0.3723 0.3723 0.8501
vn 0.3764 0.6551 0.6551
vn 0.1263 0.7014 0.7014
vn 0.3755 0.1206 0.9189
vn 0.1206 0.9189 -0.3755
vn -0.1145 0.9868 -0.1145
vn -0.3723 0.3723 0.8501
vn -0.3755 0.1206 0.9189
vn -0.3764 0.6551 0.6551
vn 0.3741 -0.0000 0.9274
vn 0.5153 -0.0000 0.8570
vn -1.0000 -0.0000 -0.0000
vn -0.9936 -0.0000 0.1126
vn -0.2237 -0.0000 0.9747
vn -0.1126 -0.0000 -0.9936
vn -0.2237 -0.0000 -0.9747
vn 0.2237 -0.0000 0.9747
vn 0.1126 -0.0000 0.9936
vn -0.1206 0.9189 -0.3755
vn 0.1263 0.7014 -0.7014
vn 1.0000 -0.0000 -0.0000
vn 0.9936 -0.0000 -0.1126
vn 0.3723 0.8501 -0.3723
vn 0.2237 -0.0000 -0.9747
vn 0.8570 -0.0000 0.5153
vn -0.3723 0.8501 -0.3723
vn -0.3723 0.8501 0.3723
vn 0.1206 0.9189 0.3755
vn 0.3723 0.8501 0.3723
vn 0.7014 0.7014 0.1263
vn -0.9747 -0.0000 0.2237
vn -0.5153 -0.0000 0.8570
vn -0.7071 -0.0000 0.7071
vn 0.7071 -0.0000 -0.7071
vn -0.9936 -0.0000 -0.1126
vn 0.9936 -0.0000 0.1126
vn 0.7071 -0.0000 0.7071
vn -0.3741 -0.0000 0.9274
vn -0.0000 -1.0000 -0.0000
vt 0.000000 0.000000
vt 0.000000 0.000000
vt 0.000000 0.000000
vt 0.000000 0.000000
vt 0.000000 0.000000
vt 0.000000 0.000000
vt 0.000000 0.000000
vt 0.000000 0.000000
vt 0.000000 0.000000
vt 0.000000 0.000000
vt 0.000000 0.000000
vt 0.000000 0.000000
vt 0.000000 0.000000
vt 0.000000 0.000000
vt 0.000000 0.000000
vt 0.000000 0.000000
vt 0.000000 0.000000
vt 0.000000 0.000000
vt 0.000000 0.000000
vt 0.000000 0.000000
vt 0.000000 0.000000
vt 0.000000 0.000000
vt 0.000000 0.000000
vt 0.000000 0.000000
vt 0.000000 0.000000
vt 0.000000 0.000000
vt 0.000000 0.000000
vt 0.000000 0.000000
vt 0.000000 0.000000
vt 0.000000 0.000000
vt 0.000000 0.000000
vt 0.000000 0.000000
vt 0.000000 0.000000
vt 0.000000 0.000000
vt 0.000000 0.000000
vt 0.000000 0.000000
vt 0.000000 0.000000
vt 0.000000 0.000000
vt 0.000000 0.000000
vt 0.000000 0.000000
vt 0.000000 0.000000
vt 0.000000 0.000000
vt 0.000000 0.000000
vt 0.000000 0.000000
vt 0.000000 0.000000
vt 0.000000 0.000000
vt 0.000000 0.000000
vt 0.000000 0.000000
vt 0.000000 0.000000
vt 0.000000 0.000000
vt 0.000000 0.000000
vt 0.000000 0.000000
vt 0.000000 0.000000
vt 0.000000 0.000000
vt 0.000000 0.000000
vt 0.000000 0.000000
vt 0.000000 0.000000
vt 0.000000 0.000000
vt 0.000000 0.000000
vt 0.000000 0.000000
vt 0.000000 0.000000
vt 0.000000 0.000000
vt 0.000000 0.000000
vt 0.000000 0.000000
vt 0.000000 0.000000
vt 0.000000 0.000000
vt 0.000000 0.000000
vt 0.000000 0.000000
vt 0.000000 0.000000
vt 0.000000 0.000000
vt 0.000000 0.000000
vt 0.000000 0.000000
vt 0.000000 0.000000
vt 0.000000 0.000000
vt 0.000000 0.000000
vt 0.000000 0.000000
vt 0.000000 0.000000
vt 0.500000 0.000000
vt 0.000000 0.000000
vt 0.555607 0.000000
vt 0.000000 0.000000
vt 0.572989 0.000000
vt 0.000000 0.000000
vt 0.572136 0.000000
vt 0.000000 0.000000
vt 0.570429 0.000000
vt 0.000000 0.000000
vt 0.427011 0.000000
vt 0.000000 0.000000
vt 0.427864 0.000000
vt 0.000000 0.000000
vt 0.429571 0.000000
vt 0.000000 0.000000
vt 0.431275 0.000000
vt 0.000000 0.000000
vt 0.500000 0.000000
vt 0.000000 0.000000
vt 0.444393 0.000000
vt 0.000000 0.000000
vt 0.429571 0.000000
vt 0.000000 0.000000
vt 0.427864 0.000000
vt 0.000000 0.000000
vt 0.572136 0.000000
vt 0.000000 0.000000
vt 0.572989 0.000000
vt 0.000000 0.000000
vt 0.565892 0.000000
vt 0.000000 0.000000
vt 0.563053 0.000000
vt 0.000000 0.000000
vt 0.436947 0.000000
vt 0.000000 0.000000
vt 0.434108 0.000000
vt 0.000000 0.000000
vt 0.565892 0.000000
vt 0.000000 0.000000
vt 0.563053 0.000000
vt 0.000000 0.000000
vt 0.426156 0.000000
vt 0.000000 0.000000
vt 0.426156 0.000000
vt 0.000000 0.000000
vt 0.440664 0.000000
vt 0.000000 0.000000
vt 0.440664 0.000000
vt 0.000000 0.000000
vt 0.444393 0.000000
vt 0.000000 0.000000
vt 0.559336 0.000000
vt 0.000000 0.000000
vt 0.555607 0.000000
vt 0.000000 0.000000
vt 0.573844 0.000000
vt 0.000000 0.000000
vt 0.573844 0.000000
vt 0.000000 0.000000
vt 0.559336 0.000000
vt 0.000000 0.000000
vt 0.570429 0.000000
vt 0.000000 0.000000
vt 0.427011 0.000000
vt 0.000000 0.000000
vt 0.434108 0.000000
vt 0.000000 0.000000
vt 0.431275 0.000000
vt 0.000000 0.000000
vt 0.568725 0.000000
vt 0.000000 0.000000
vt 0.426156 0.000000
vt 0.000000 0.000000
vt 0.573844 0.000000
vt 0.000000 0.000000
vt 0.568725 0.000000
vt 0.000000 0.000000
vt 0.436947 0.000000
s 1
usemtl Default_OBJ
f 1/1/1 2/2/2 3/3/3
f 4/4/4 5/5/5 6/6/6
f 1/1/1 7/7/7 8/8/8
f 8/8/8 9/9/9 6/6/6
f 10/10/10 11/11/11 7/7/7
f 7/7/7 12/12/12 9/9/9
f 78/79/13 77/77/14 13/13/15
f 3/3/3 14/14/16 15/15/17
f 15/15/17 16/16/18 17/17/19
f 2/2/2 18/18/20 14/14/16
f 14/14/16 19/19/21 16/16/18
f 21/21/22 20/20/23 79/81/24 80/83/25
f 80/83/25 81/85/26 21/21/22
f 22/22/27 23/23/28 24/24/29
f 82/87/30 3/3/3 15/15/17 83/89/31
f 25/25/32 26/26/33 27/27/34
f 27/27/34 28/28/35 29/29/36
f 30/30/37 16/16/18 26/26/33
f 26/26/33 19/19/21 28/28/35
f 31/31/38 32/32/39 33/33/40
f 13/13/15 34/34/41 35/35/42
f 35/35/42 36/36/43 37/37/44
f 38/38/45 39/39/46 34/34/41
f 34/34/41 40/40/47 36/36/43
f 24/24/29 41/41/48 4/4/4
f 84/91/49 15/15/17 17/17/19 85/93/50
f 42/42/51 43/43/52 44/44/53
f 46/46/54 87/97/55 86/95/56 45/45/57
f 47/47/58 31/31/38 33/33/40
f 20/20/23 48/48/59 49/49/60
f 49/49/60 50/50/61 32/32/39
f 21/21/22 36/36/43 48/48/59
f 48/48/59 40/40/47 50/50/61
f 46/46/54 42/42/51 44/44/53
f 51/51/62 10/10/10 89/101/63 88/99/64
f 52/52/65 53/53/66 54/54/67
f 54/54/67 55/55/68 56/56/69
f 57/57/70 58/58/71 53/53/66
f 53/53/66 59/59/72 55/55/68
f 90/103/73 91/105/74 54/54/67
f 92/107/75 93/109/76 35/35/42 37/37/44
f 17/17/19 30/30/37 94/111/77 95/113/78
f 45/45/57 60/60/79 42/42/51
f 42/42/51 61/61/80 62/62/81
f 63/63/82 55/55/68 60/60/79
f 60/60/79 59/59/72 61/61/80
f 64/64/83 65/65/84 47/47/58
f 46/46/54 66/66/85 67/67/86
f 67/67/86 11/11/11 51/51/62
f 44/44/53 68/68/87 66/66/85
f 66/66/85 12/12/12 11/11/11
f 57/57/70 20/20/23 49/49/60
f 63/63/82 97/117/88 96/115/89 56/56/69
f 1/1/1 3/3/3 98/119/90 99/121/91
f 32/32/39 57/57/70 49/49/60
f 87/97/55 46/46/54 67/67/86 100/123/92
f 102/127/93 101/125/94 25/25/32
f 103/129/95 45/45/57 104/131/96
f 25/25/32 38/38/45 13/13/15
f 69/69/97 70/70/98 29/29/36
f 105/133/99 106/135/100 20/20/23
f 47/47/58 71/71/101 64/64/83
f 64/64/83 39/39/46 70/70/98
f 33/33/40 50/50/61 71/71/101
f 71/71/101 40/40/47 39/39/46
f 13/13/15 35/35/42 93/109/76 107/137/102
f 108/139/103 90/103/73 54/54/67
f 47/47/58 24/24/29 23/23/28
f 65/65/84 72/72/104 41/41/48
f 41/41/48 18/18/20 5/5/5
f 69/69/97 28/28/35 72/72/104
f 72/72/104 19/19/21 18/18/20
f 8/8/8 5/5/5 2/2/2
f 24/24/29 73/73/105 22/22/27
f 22/22/27 68/68/87 43/43/52
f 4/4/4 9/9/9 73/73/105
f 73/73/105 12/12/12 68/68/87
f 43/43/52 74/74/106 22/22/27
f 70/70/98 27/27/34 29/29/36
f 23/23/28 75/75/107 31/31/38
f 31/31/38 58/58/71 76/76/108
f 74/74/106 61/61/80 75/75/107
f 75/75/107 59/59/72 58/58/71
f 10/10/10 1/1/1 99/121/91 109/141/109
f 110/143/110 51/51/62 111/145/111
f 1/1/1 8/8/8 2/2/2
f 4/4/4 41/41/48 5/5/5
f 1/1/1 10/10/10 7/7/7
f 8/8/8 7/7/7 9/9/9
f 10/10/10 51/51/62 11/11/11
f 7/7/7 11/11/11 12/12/12
f 77/77/14 102/127/93 25/25/32 13/13/15
f 3/3/3 2/2/2 14/14/16
f 15/15/17 14/14/16 16/16/18
f 2/2/2 5/5/5 18/18/20
f 14/14/16 18/18/20 19/19/21
f 106/135/100 79/81/24 20/20/23
f 37/37/44 21/21/22 81/85/26 112/147/112
f 22/22/27 74/74/106 23/23/28
f 113/149/113 3/3/3 82/87/30
f 25/25/32 30/30/37 26/26/33
f 27/27/34 26/26/33 28/28/35
f 30/30/37 17/17/19 16/16/18
f 26/26/33 16/16/18 19/19/21
f 31/31/38 76/76/108 32/32/39
f 13/13/15 38/38/45 34/34/41
f 35/35/42 34/34/41 36/36/43
f 38/38/45 70/70/98 39/39/46
f 34/34/41 39/39/46 40/40/47
f 24/24/29 65/65/84 41/41/48
f 83/89/31 15/15/17 84/91/49
f 42/42/51 62/62/81 43/43/52
f 104/131/96 45/45/57 86/95/56
f 47/47/58 23/23/28 31/31/38
f 20/20/23 21/21/22 48/48/59
f 49/49/60 48/48/59 50/50/61
f 21/21/22 37/37/44 36/36/43
f 48/48/59 36/36/43 40/40/47
f 46/46/54 45/45/57 42/42/51
f 111/145/111 51/51/62 88/99/64
f 52/52/65 57/57/70 53/53/66
f 54/54/67 53/53/66 55/55/68
f 57/57/70 76/76/108 58/58/71
f 53/53/66 58/58/71 59/59/72
f 52/52/65 54/54/67 91/105/74 114/151/114
f 112/147/112 92/107/75 37/37/44
f 95/113/78 85/93/50 17/17/19
f 45/45/57 63/63/82 60/60/79
f 42/42/51 60/60/79 61/61/80
f 63/63/82 56/56/69 55/55/68
f 60/60/79 55/55/68 59/59/72
f 64/64/83 69/69/97 65/65/84
f 46/46/54 44/44/53 66/66/85
f 67/67/86 66/66/85 11/11/11
f 44/44/53 43/43/52 68/68/87
f 66/66/85 68/68/87 12/12/12
f 57/57/70 52/52/65 20/20/23
f 115/153/115 56/56/69 96/115/89
f 98/119/90 3/3/3 113/149/113
f 32/32/39 76/76/108 57/57/70
f 100/123/92 67/67/86 116/155/116
f 101/125/94 94/111/77 30/30/37 25/25/32
f 97/117/88 63/63/82 45/45/57 103/129/95
f 25/25/32 27/27/34 38/38/45
f 69/69/97 64/64/83 70/70/98
f 20/20/23 52/52/65 114/151/114 105/133/99
f 47/47/58 33/33/40 71/71/101
f 64/64/83 71/71/101 39/39/46
f 33/33/40 32/32/39 50/50/61
f 71/71/101 50/50/61 40/40/47
f 107/137/102 78/79/13 13/13/15
f 54/54/67 56/56/69 115/153/115 108/139/103
f 47/47/58 65/65/84 24/24/29
f 65/65/84 69/69/97 72/72/104
f 41/41/48 72/72/104 18/18/20
f 69/69/97 29/29/36 28/28/35
f 72/72/104 28/28/35 19/19/21
f 8/8/8 6/6/6 5/5/5
f 24/24/29 4/4/4 73/73/105
f 22/22/27 73/73/105 68/68/87
f 4/4/4 6/6/6 9/9/9
f 73/73/105 9/9/9 12/12/12
f 43/43/52 62/62/81 74/74/106
f 70/70/98 38/38/45 27/27/34
f 23/23/28 74/74/106 75/75/107
f 31/31/38 75/75/107 58/58/71
f 74/74/106 62/62/81 61/61/80
f 75/75/107 61/61/80 59/59/72
f 89/101/63 10/10/10 109/141/109
f 116/155/116 67/67/86 51/51/62 110/143/110
s 0
f 108/140/117 115/154/117 96/116/117 97/118/117 103/130/117 104/132/117 86/96/117 87/98/117 100/124/117 116/156/117 110/144/117 111/146/117 88/100/117 89/102/117 109/142/117 99/122/117 98/120/117 113/150/117 82/88/117 83/90/117 84/92/117 85/94/117 95/114/117 94/112/117 101/126/117 102/128/117 77/78/117 78/80/117 107/138/117 93/110/117 92/108/117 112/148/117 81/86/117 80/84/117 79/82/117 106/136/117 105/134/117 114/152/117 91/106/117 90/104/117
