# Blender 3.1.0
# www.blender.org
o block
v -0.137451 -0.020000 0.137451
v -0.130761 -0.020000 0.141473
v -0.111214 -0.020000 0.147689
v -0.117331 -0.020000 0.146285
v -0.126107 -0.020000 0.144271
v 0.130761 -0.020000 0.141473
v 0.126107 -0.020000 0.144271
v 0.120013 -0.020000 0.145670
v 0.137451 -0.020000 -0.137451
v -0.020000 -0.020000 0.147689
v 0.144271 -0.020000 -0.126107
v 0.145670 -0.020000 -0.120013
v 0.140242 -0.020000 -0.132809
v 0.147689 -0.020000 0.020000
v 0.147689 -0.020000 -0.111214
v 0.147689 -0.020000 0.111214
v 0.146285 -0.020000 0.117331
v 0.144271 -0.020000 0.126107
v 0.140242 -0.020000 0.132809
v 0.137451 -0.020000 0.137451
v 0.111214 -0.020000 0.147689
v -0.147689 -0.020000 -0.111214
v -0.147689 -0.020000 0.020000
v -0.147689 -0.020000 0.111214
v -0.146285 -0.020000 0.117331
v -0.145670 -0.020000 -0.120013
v -0.144271 -0.020000 -0.126107
v -0.140242 -0.020000 -0.132809
v -0.137451 -0.020000 -0.137451
v -0.141473 -0.020000 0.130761
v -0.144271 -0.020000 0.126107
v -0.130761 -0.020000 -0.141473
v -0.126107 -0.020000 -0.144271
v -0.120013 -0.020000 -0.145670
v 0.130761 -0.020000 -0.141473
v 0.120013 -0.020000 -0.145670
v 0.111214 -0.020000 -0.147689
v 0.126107 -0.020000 -0.144271
v -0.020000 -0.020000 -0.147689
v -0.111214 -0.020000 -0.147689
v 0.020000 0.020000 -0.147689
v 0.111214 0.020000 -0.147689
v 0.146285 0.020000 -0.117331
v 0.144271 0.020000 -0.126107
v 0.141473 0.020000 -0.130761
v -0.144271 0.020000 -0.126107
v -0.146285 0.020000 -0.117331
v -0.137451 0.020000 -0.137451
v -0.141473 0.020000 -0.130761
v 0.020000 0.020000 0.147689
v -0.111214 0.020000 0.147689
v -0.144271 0.020000 0.126107
v -0.140242 0.020000 0.132809
v 0.144271 0.020000 0.126107
v 0.145670 0.020000 0.120013
v 0.132809 0.020000 -0.140242
v 0.126107 0.020000 -0.144271
v -0.132809 0.020000 -0.140242
v -0.126107 0.020000 -0.144271
v 0.132809 0.020000 0.140242
v 0.126107 0.020000 0.144271
v -0.147689 0.020000 0.111214
v -0.147689 0.020000 -0.020000
v -0.120013 0.020000 0.145670
v -0.117331 0.020000 -0.146285
v -0.111214 0.020000 -0.147689
v 0.117331 0.020000 0.146285
v 0.111214 0.020000 0.147689
v 0.147689 0.020000 -0.020000
v 0.147689 0.020000 -0.111214
v 0.117331 0.020000 -0.146285
v 0.141473 0.020000 0.130761
v -0.145670 0.020000 0.120013
v -0.132809 0.020000 0.140242
v -0.137451 0.020000 0.137451
v 0.137451 0.020000 -0.137451
v -0.147689 0.020000 -0.111214
v 0.147689 0.020000 0.111214
v 0.137451 0.020000 0.137451
v -0.126107 0.020000 0.144271
v -0.130380 -0.020000 0.130380
v -0.125608 -0.020000 0.132903
v -0.110088 -0.020000 0.137753
v -0.115094 -0.020000 0.136539
v -0.122366 -0.020000 0.134997
v 0.125608 -0.020000 0.132903
v 0.122366 -0.020000 0.134997
v 0.117776 -0.020000 0.135923
v 0.130380 -0.020000 -0.130380
v -0.020000 -0.020000 0.137689
v 0.134997 -0.020000 -0.122366
v 0.135923 -0.020000 -0.117776
v 0.131671 -0.020000 -0.127657
v 0.137689 -0.020000 0.020000
v 0.137753 -0.020000 -0.110088
v 0.137753 -0.020000 0.110088
v 0.136539 -0.020000 0.115094
v 0.134997 -0.020000 0.122366
v 0.131671 -0.020000 0.127657
v 0.130380 -0.020000 0.130380
v 0.110088 -0.020000 0.137753
v -0.137753 -0.020000 -0.110088
v -0.137689 -0.020000 0.020000
v -0.137753 -0.020000 0.110088
v -0.136539 -0.020000 0.115094
v -0.135923 -0.020000 -0.117776
v -0.134997 -0.020000 -0.122366
v -0.131671 -0.020000 -0.127657
v -0.130380 -0.020000 -0.130380
v -0.132903 -0.020000 0.125608
v -0.134997 -0.020000 0.122366
v -0.125608 -0.020000 -0.132903
v -0.122366 -0.020000 -0.134997
v -0.117776 -0.020000 -0.135923
v 0.125608 -0.020000 -0.132903
v 0.117776 -0.020000 -0.135923
v 0.110088 -0.020000 -0.137753
v 0.122366 -0.020000 -0.134997
v -0.020000 -0.020000 -0.137689
v -0.110088 -0.020000 -0.137753
v 0.020000 0.020000 -0.137689
v 0.110088 0.020000 -0.137753
v 0.136539 0.020000 -0.115094
v 0.134997 0.020000 -0.122366
v 0.132903 0.020000 -0.125608
v -0.134997 0.020000 -0.122366
v -0.136539 0.020000 -0.115094
v -0.130380 0.020000 -0.130380
v -0.132903 0.020000 -0.125608
v 0.020000 0.020000 0.137689
v -0.110088 0.020000 0.137753
v -0.134997 0.020000 0.122366
v -0.131671 0.020000 0.127657
v 0.134997 0.020000 0.122366
v 0.135923 0.020000 0.117776
v 0.127657 0.020000 -0.131671
v 0.122366 0.020000 -0.134997
v -0.127657 0.020000 -0.131671
v -0.122366 0.020000 -0.134997
v 0.127657 0.020000 0.131671
v 0.122366 0.020000 0.134997
v -0.137753 0.020000 0.110088
v -0.137689 0.020000 -0.020000
v -0.117776 0.020000 0.135923
v -0.115094 0.020000 -0.136539
v -0.110088 0.020000 -0.137753
v 0.115094 0.020000 0.136539
v 0.110088 0.020000 0.137753
v 0.137689 0.020000 -0.020000
v 0.137753 0.020000 -0.110088
v 0.115094 0.020000 -0.136539
v 0.132903 0.020000 0.125608
v -0.135923 0.020000 0.117776
v -0.127657 0.020000 0.131671
v -0.130380 0.020000 0.130380
v 0.130380 0.020000 -0.130380
v -0.137753 0.020000 -0.110088
v 0.137753 0.020000 0.110088
v 0.130380 0.020000 0.130380
v -0.122366 0.020000 0.134997
vn 0.0823 -0.6826 -0.7261
vn -0.0000 -0.7071 -0.7071
vn -0.0000 0.7071 -0.7071
vn 0.0823 0.6826 -0.7261
vn 0.6892 -0.7071 -0.1582
vn 0.6856 -0.6734 -0.2766
vn 0.6856 0.6734 -0.2766
vn 0.6892 0.7071 -0.1582
vn 0.6060 0.7071 -0.3643
vn 0.6060 -0.7071 -0.3643
vn -0.6856 0.6734 -0.2766
vn -0.6856 -0.6734 -0.2766
vn -0.6892 -0.7071 -0.1582
vn -0.6892 0.7071 -0.1582
vn -0.5334 0.6565 -0.5334
vn -0.5334 -0.6565 -0.5334
vn -0.6060 -0.7071 -0.3643
vn -0.6060 0.7071 -0.3643
vn -0.0823 0.6826 0.7261
vn -0.0823 -0.6826 0.7261
vn -0.0000 -0.7071 0.7071
vn -0.0000 0.7071 0.7071
vn -0.6856 0.6734 0.2766
vn -0.6856 -0.6734 0.2766
vn -0.6060 -0.7071 0.3643
vn -0.6060 0.7071 0.3643
vn 0.6892 0.7071 0.1582
vn 0.6856 0.6734 0.2766
vn 0.6856 -0.6734 0.2766
vn 0.6892 -0.7071 0.1582
vn 0.3643 -0.7071 -0.6060
vn 0.2766 -0.6734 -0.6856
vn 0.2766 0.6734 -0.6856
vn 0.3643 0.7071 -0.6060
vn -0.2766 -0.6734 -0.6856
vn -0.3643 -0.7071 -0.6060
vn -0.3643 0.7071 -0.6060
vn -0.2766 0.6734 -0.6856
vn 0.2766 0.6734 0.6856
vn 0.2766 -0.6734 0.6856
vn 0.3643 -0.7071 0.6060
vn 0.3643 0.7071 0.6060
vn -0.7071 0.7071 -0.0000
vn -0.7071 -0.7071 -0.0000
vn -0.7261 -0.6826 0.0823
vn -0.7261 0.6826 0.0823
vn -0.1582 -0.7071 0.6892
vn -0.1582 0.7071 0.6892
vn -0.0823 -0.6826 -0.7261
vn -0.1582 -0.7071 -0.6892
vn -0.1582 0.7071 -0.6892
vn -0.0823 0.6826 -0.7261
vn 0.0823 0.6826 0.7261
vn 0.0823 -0.6826 0.7261
vn 0.1582 -0.7071 0.6892
vn 0.1582 0.7071 0.6892
vn 0.7071 -0.7071 -0.0000
vn 0.7261 -0.6826 -0.0823
vn 0.7261 0.6826 -0.0823
vn 0.7071 0.7071 -0.0000
vn 0.1582 -0.7071 -0.6892
vn 0.1582 0.7071 -0.6892
vn 0.6060 -0.7071 0.3643
vn 0.6060 0.7071 0.3643
vn -0.6892 -0.7071 0.1582
vn -0.6892 0.7071 0.1582
vn -0.5334 0.6565 0.5334
vn -0.5334 -0.6565 0.5334
vn -0.3643 -0.7071 0.6060
vn -0.3643 0.7071 0.6060
vn 0.5334 -0.6565 -0.5334
vn 0.5334 0.6565 -0.5334
vn -0.7261 -0.6826 -0.0823
vn -0.7261 0.6826 -0.0823
vn 0.7261 -0.6826 0.0823
vn 0.7261 0.6826 0.0823
vn 0.5334 -0.6565 0.5334
vn 0.5334 0.6565 0.5334
vn -0.2766 0.6734 0.6856
vn -0.2766 -0.6734 0.6856
vn -0.0795 -0.7345 0.6739
vn -0.0794 0.7348 0.6737
vn 0.0002 0.7069 0.7073
vn -0.0002 -0.7069 0.7073
vn -0.6940 -0.7031 0.1549
vn -0.6930 0.7039 0.1556
vn -0.6127 0.7502 0.2486
vn -0.6130 -0.7499 0.2487
vn -0.6216 0.6977 0.3560
vn -0.6264 -0.6936 0.3558
vn 0.6127 0.7502 0.2486
vn 0.6930 0.7039 0.1556
vn 0.6940 -0.7031 0.1549
vn 0.6130 -0.7499 0.2487
vn 0.4382 0.7848 0.4382
vn 0.6216 0.6977 0.3560
vn 0.6264 -0.6936 0.3558
vn 0.4382 -0.7848 0.4382
vn 0.0795 0.7345 -0.6739
vn 0.0002 0.7069 -0.7073
vn -0.0002 -0.7069 -0.7073
vn 0.0794 -0.7348 -0.6737
vn 0.6130 0.7499 -0.2487
vn 0.6264 0.6936 -0.3558
vn 0.6216 -0.6977 -0.3560
vn 0.6127 -0.7502 -0.2486
vn -0.6940 0.7031 -0.1549
vn -0.6930 -0.7039 -0.1556
vn -0.6137 -0.7492 -0.2490
vn -0.6120 0.7509 -0.2483
vn -0.3560 -0.6977 0.6216
vn -0.3558 0.6936 0.6264
vn -0.2490 0.7492 0.6137
vn -0.2483 -0.7509 0.6120
vn 0.2483 -0.7509 0.6120
vn 0.2490 0.7492 0.6137
vn 0.3558 0.6936 0.6264
vn 0.3560 -0.6977 0.6216
vn -0.2490 0.7492 -0.6137
vn -0.3558 0.6936 -0.6264
vn -0.3560 -0.6977 -0.6216
vn -0.2483 -0.7509 -0.6120
vn 0.7073 0.7069 -0.0002
vn 0.6739 0.7345 -0.0795
vn 0.6737 -0.7348 -0.0794
vn 0.7073 -0.7069 0.0002
vn 0.1556 -0.7039 -0.6930
vn 0.1549 0.7031 -0.6940
vn 0.0795 -0.7344 0.6740
vn 0.0794 0.7348 0.6736
vn 0.1556 0.7039 0.6930
vn 0.1549 -0.7031 0.6940
vn -0.0794 0.7348 -0.6737
vn -0.1556 0.7039 -0.6930
vn -0.1549 -0.7031 -0.6940
vn -0.0795 -0.7345 -0.6739
vn -0.7073 -0.7069 0.0002
vn -0.7073 0.7069 -0.0002
vn -0.6737 0.7348 0.0794
vn -0.6739 -0.7345 0.0795
vn -0.1556 0.7039 0.6930
vn -0.1549 -0.7031 0.6940
vn -0.6264 -0.6936 -0.3558
vn -0.6216 0.6977 -0.3560
vn 0.6940 0.7031 -0.1549
vn 0.6930 -0.7039 -0.1556
vn 0.4356 0.7877 -0.4356
vn 0.3558 0.6936 -0.6264
vn 0.3560 -0.6977 -0.6216
vn 0.4409 -0.7819 -0.4409
vn -0.4382 0.7848 0.4382
vn -0.4382 -0.7848 0.4382
vn 0.6739 -0.7345 0.0795
vn 0.6737 0.7348 0.0794
vn -0.6739 0.7345 -0.0795
vn -0.6737 -0.7348 -0.0794
vn -0.4382 0.7848 -0.4382
vn -0.4382 -0.7848 -0.4382
vn 0.2487 0.7499 -0.6130
vn 0.2486 -0.7502 -0.6127
vt 0.000000 0.000000
vt 0.000000 0.000000
vt 0.000000 0.000000
vt 0.000000 0.000000
vt 0.000000 0.000000
vt 0.000000 0.000000
vt 0.000000 0.000000
vt 0.000000 0.000000
vt 0.000000 0.000000
vt 0.000000 0.000000
vt 0.000000 0.000000
vt 0.000000 0.000000
vt 0.000000 0.000000
vt 0.000000 0.000000
vt 0.000000 0.000000
vt 0.000000 0.000000
vt 0.000000 0.000000
vt 0.000000 0.000000
vt 0.000000 0.000000
vt 0.000000 0.000000
vt 0.000000 0.000000
vt 0.000000 0.000000
vt 0.000000 0.000000
vt 0.000000 0.000000
vt 0.000000 0.000000
vt 0.000000 0.000000
vt 0.000000 0.000000
vt 0.000000 0.000000
vt 0.000000 0.000000
vt 0.000000 0.000000
vt 0.000000 0.000000
vt 0.000000 0.000000
vt 0.000000 0.000000
vt 0.000000 0.000000
vt 0.000000 0.000000
vt 0.000000 0.000000
vt 0.000000 0.000000
vt 0.000000 0.000000
vt 0.000000 0.000000
vt 0.000000 0.000000
vt 0.000000 0.000000
vt 0.000000 0.000000
vt 0.000000 0.000000
vt 0.000000 0.000000
vt 0.000000 0.000000
vt 0.000000 0.000000
vt 0.000000 0.000000
vt 0.000000 0.000000
vt 0.000000 0.000000
vt 0.000000 0.000000
vt 0.000000 0.000000
vt 0.000000 0.000000
vt 0.000000 0.000000
vt 0.000000 0.000000
vt 0.000000 0.000000
vt 0.000000 0.000000
vt 0.000000 0.000000
vt 0.000000 0.000000
vt 0.000000 0.000000
vt 0.000000 0.000000
vt 0.000000 0.000000
vt 0.000000 0.000000
vt 0.000000 0.000000
vt 0.000000 0.000000
vt 0.000000 0.000000
vt 0.000000 0.000000
vt 0.000000 0.000000
vt 0.000000 0.000000
vt 0.000000 0.000000
vt 0.000000 0.000000
vt 0.000000 0.000000
vt 0.000000 0.000000
vt 0.000000 0.000000
vt 0.000000 0.000000
vt 0.000000 0.000000
vt 0.000000 0.000000
vt 0.000000 0.000000
vt 0.000000 0.000000
vt 0.000000 0.000000
vt 0.000000 0.000000
vt 0.000000 0.000000
vt 0.000000 0.000000
vt 0.000000 0.000000
vt 0.000000 0.000000
vt 0.000000 0.000000
vt 0.000000 0.000000
vt 0.000000 0.000000
vt 0.000000 0.000000
vt 0.000000 0.000000
vt 0.000000 0.000000
vt 0.000000 0.000000
vt 0.000000 0.000000
vt 0.000000 0.000000
vt 0.000000 0.000000
vt 0.000000 0.000000
vt 0.000000 0.000000
vt 0.000000 0.000000
vt 0.000000 0.000000
vt 0.000000 0.000000
vt 0.000000 0.000000
vt 0.000000 0.000000
vt 0.000000 0.000000
vt 0.000000 0.000000
vt 0.000000 0.000000
vt 0.000000 0.000000
vt 0.000000 0.000000
vt 0.000000 0.000000
vt 0.000000 0.000000
vt 0.000000 0.000000
vt 0.000000 0.000000
vt 0.000000 0.000000
vt 0.000000 0.000000
vt 0.000000 0.000000
vt 0.000000 0.000000
vt 0.000000 0.000000
vt 0.000000 0.000000
vt 0.000000 0.000000
vt 0.000000 0.000000
vt 0.000000 0.000000
vt 0.000000 0.000000
vt 0.000000 0.000000
vt 0.000000 0.000000
vt 0.000000 0.000000
vt 0.000000 0.000000
vt 0.000000 0.000000
vt 0.000000 0.000000
vt 0.000000 0.000000
vt 0.000000 0.000000
vt 0.000000 0.000000
vt 0.000000 0.000000
vt 0.000000 0.000000
vt 0.000000 0.000000
vt 0.000000 0.000000
vt 0.000000 0.000000
vt 0.000000 0.000000
vt 0.000000 0.000000
vt 0.000000 0.000000
vt 0.000000 0.000000
vt 0.000000 0.000000
vt 0.000000 0.000000
vt 0.000000 0.000000
vt 0.000000 0.000000
vt 0.000000 0.000000
vt 0.000000 0.000000
vt 0.000000 0.000000
vt 0.000000 0.000000
vt 0.000000 0.000000
vt 0.000000 0.000000
vt 0.000000 0.000000
vt 0.000000 0.000000
vt 0.000000 0.000000
vt 0.000000 0.000000
vt 0.000000 0.000000
vt 0.000000 0.000000
vt 0.000000 0.000000
vt 0.000000 0.000000
vt 0.000000 0.000000
vt 0.000000 0.000000
vt 0.000000 0.000000
vt 0.000000 0.000000
s 1
f 37/37/1 39/39/2 41/41/3 42/42/4
f 12/12/5 11/11/6 44/44/7 43/43/8
f 45/45/9 44/44/7 11/11/6 13/13/10
f 46/46/11 27/27/12 26/26/13 47/47/14
f 48/48/15 29/29/16 28/28/17 49/49/18
f 51/51/19 3/3/20 10/10/21 50/50/22
f 52/52/23 31/31/24 30/30/25 53/53/26
f 55/55/27 54/54/28 18/18/29 17/17/30
f 35/35/31 38/38/32 57/57/33 56/56/34
f 33/33/35 32/32/36 58/58/37 59/59/38
f 61/61/39 7/7/40 6/6/41 60/60/42
f 63/63/43 23/23/44 24/24/45 62/62/46
f 4/4/47 3/3/20 51/51/19 64/64/48
f 40/40/49 34/34/50 65/65/51 66/66/52
f 68/68/53 21/21/54 8/8/55 67/67/56
f 14/14/57 15/15/58 70/70/59 69/69/60
f 38/38/32 36/36/61 71/71/62 57/57/33
f 19/19/63 18/18/29 54/54/28 72/72/64
f 62/62/46 24/24/45 25/25/65 73/73/66
f 75/75/67 1/1/68 2/2/69 74/74/70
f 39/39/2 40/40/49 66/66/52 41/41/3
f 43/43/8 70/70/59 15/15/58 12/12/5
f 13/13/10 9/9/71 76/76/72 45/45/9
f 22/22/73 77/77/74 47/47/14 26/26/13
f 27/27/12 46/46/11 49/49/18 28/28/17
f 50/50/22 10/10/21 21/21/54 68/68/53
f 1/1/68 75/75/67 53/53/26 30/30/25
f 17/17/30 16/16/75 78/78/76 55/55/27
f 9/9/71 35/35/31 56/56/34 76/76/72
f 32/32/36 29/29/16 48/48/15 58/58/37
f 60/60/42 6/6/41 20/20/77 79/79/78
f 77/77/74 22/22/73 23/23/44 63/63/43
f 80/80/79 5/5/80 4/4/47 64/64/48
f 34/34/50 33/33/35 59/59/38 65/65/51
f 8/8/55 7/7/40 61/61/39 67/67/56
f 16/16/75 14/14/57 69/69/60 78/78/76
f 36/36/61 37/37/1 42/42/4 71/71/62
f 20/20/77 19/19/63 72/72/64 79/79/78
f 31/31/24 52/52/23 73/73/66 25/25/65
f 2/2/69 5/5/80 80/80/79 74/74/70
f 117/117/81 122/122/82 121/121/83 119/119/84
f 92/92/85 123/123/86 124/124/87 91/91/88
f 125/125/89 93/93/90 91/91/88 124/124/87
f 126/126/91 127/127/92 106/106/93 107/107/94
f 128/128/95 129/129/96 108/108/97 109/109/98
f 131/131/99 130/130/100 90/90/101 83/83/102
f 132/132/103 133/133/104 110/110/105 111/111/106
f 135/135/107 97/97/108 98/98/109 134/134/110
f 115/115/111 136/136/112 137/137/113 118/118/114
f 113/113/115 139/139/116 138/138/117 112/112/118
f 141/141/119 140/140/120 86/86/121 87/87/122
f 143/143/123 142/142/124 104/104/125 103/103/126
f 84/84/127 144/144/128 131/131/99 83/83/102
f 120/120/129 146/146/130 145/145/131 114/114/132
f 148/148/133 147/147/134 88/88/135 101/101/136
f 94/94/137 149/149/138 150/150/139 95/95/140
f 118/118/114 137/137/113 151/151/141 116/116/142
f 99/99/143 152/152/144 134/134/110 98/98/109
f 142/142/124 153/153/145 105/105/146 104/104/125
f 155/155/147 154/154/148 82/82/149 81/81/150
f 119/119/84 121/121/83 146/146/130 120/120/129
f 123/123/86 92/92/85 95/95/140 150/150/139
f 93/93/90 125/125/89 156/156/151 89/89/152
f 102/102/153 106/106/93 127/127/92 157/157/154
f 107/107/94 108/108/97 129/129/96 126/126/91
f 130/130/100 148/148/133 101/101/136 90/90/101
f 81/81/150 110/110/105 133/133/104 155/155/147
f 97/97/108 135/135/107 158/158/155 96/96/156
f 89/89/152 156/156/151 136/136/112 115/115/111
f 112/112/118 138/138/117 128/128/95 109/109/98
f 140/140/120 159/159/157 100/100/158 86/86/121
f 157/157/154 143/143/123 103/103/126 102/102/153
f 160/160/159 144/144/128 84/84/127 85/85/160
f 114/114/132 145/145/131 139/139/116 113/113/115
f 88/88/135 147/147/134 141/141/119 87/87/122
f 96/96/156 158/158/155 149/149/138 94/94/137
f 116/116/142 151/151/141 122/122/82 117/117/81
f 100/100/158 159/159/157 152/152/144 99/99/143
f 111/111/106 105/105/146 153/153/145 132/132/103
f 82/82/149 154/154/148 160/160/159 85/85/160
f 2/2/69 1/1/68 81/81/150 82/82/149
f 3/3/20 4/4/47 84/84/127 83/83/102
f 4/4/47 5/5/80 85/85/160 84/84/127
f 6/6/41 7/7/40 87/87/122 86/86/121
f 7/7/40 8/8/55 88/88/135 87/87/122
f 76/76/72 56/56/34 136/136/112 156/156/151
f 10/10/21 3/3/20 83/83/102 90/90/101
f 11/11/6 12/12/5 92/92/85 91/91/88
f 13/13/10 11/11/6 91/91/88 93/93/90
f 15/15/58 14/14/57 94/94/137 95/95/140
f 42/42/4 41/41/3 121/121/83 122/122/82
f 16/16/75 17/17/30 97/97/108 96/96/156
f 17/17/30 18/18/29 98/98/109 97/97/108
f 18/18/29 19/19/63 99/99/143 98/98/109
f 20/20/77 6/6/41 86/86/121 100/100/158
f 8/8/55 21/21/54 101/101/136 88/88/135
f 53/53/26 75/75/67 155/155/147 133/133/104
f 23/23/44 22/22/73 102/102/153 103/103/126
f 24/24/45 23/23/44 103/103/126 104/104/125
f 25/25/65 24/24/45 104/104/125 105/105/146
f 22/22/73 26/26/13 106/106/93 102/102/153
f 26/26/13 27/27/12 107/107/94 106/106/93
f 27/27/12 28/28/17 108/108/97 107/107/94
f 28/28/17 29/29/16 109/109/98 108/108/97
f 1/1/68 30/30/25 110/110/105 81/81/150
f 30/30/25 31/31/24 111/111/106 110/110/105
f 29/29/16 32/32/36 112/112/118 109/109/98
f 32/32/36 33/33/35 113/113/115 112/112/118
f 57/57/33 71/71/62 151/151/141 137/137/113
f 35/35/31 9/9/71 89/89/152 115/115/111
f 37/37/1 36/36/61 116/116/142 117/117/81
f 38/38/32 35/35/31 115/115/111 118/118/114
f 39/39/2 37/37/1 117/117/81 119/119/84
f 34/34/50 40/40/49 120/120/129 114/114/132
f 46/46/11 47/47/14 127/127/92 126/126/91
f 48/48/15 49/49/18 129/129/96 128/128/95
f 51/51/19 50/50/22 130/130/100 131/131/99
f 52/52/23 53/53/26 133/133/104 132/132/103
f 44/44/7 45/45/9 125/125/89 124/124/87
f 61/61/39 60/60/42 140/140/120 141/141/119
f 63/63/43 62/62/46 142/142/124 143/143/123
f 68/68/53 67/67/56 147/147/134 148/148/133
f 66/66/52 65/65/51 145/145/131 146/146/130
f 75/75/67 74/74/70 154/154/148 155/155/147
f 60/60/42 79/79/78 159/159/157 140/140/120
f 50/50/22 68/68/53 148/148/133 130/130/100
f 62/62/46 73/73/66 153/153/145 142/142/124
f 72/72/64 54/54/28 134/134/110 152/152/144
f 31/31/24 25/25/65 105/105/146 111/111/106
f 49/49/18 46/46/11 126/126/91 129/129/96
f 55/55/27 78/78/76 158/158/155 135/135/107
f 65/65/51 59/59/38 139/139/116 145/145/131
f 77/77/74 63/63/43 143/143/123 157/157/154
f 69/69/60 70/70/59 150/150/139 149/149/138
f 9/9/71 13/13/10 93/93/90 89/89/152
f 80/80/79 64/64/48 144/144/128 160/160/159
f 41/41/3 66/66/52 146/146/130 121/121/83
f 73/73/66 52/52/23 132/132/103 153/153/145
f 5/5/80 2/2/69 82/82/149 85/85/160
f 58/58/37 48/48/15 128/128/95 138/138/117
f 12/12/5 15/15/58 95/95/140 92/92/85
f 78/78/76 69/69/60 149/149/138 158/158/155
f 33/33/35 34/34/50 114/114/132 113/113/115
f 71/71/62 42/42/4 122/122/82 151/151/141
f 70/70/59 43/43/8 123/123/86 150/150/139
f 21/21/54 10/10/21 90/90/101 101/101/136
f 14/14/57 16/16/75 96/96/156 94/94/137
f 54/54/28 55/55/27 135/135/107 134/134/110
f 79/79/78 72/72/64 152/152/144 159/159/157
f 64/64/48 51/51/19 131/131/99 144/144/128
f 56/56/34 57/57/33 137/137/113 136/136/112
f 36/36/61 38/38/32 118/118/114 116/116/142
f 74/74/70 80/80/79 160/160/159 154/154/148
f 43/43/8 44/44/7 124/124/87 123/123/86
f 45/45/9 76/76/72 156/156/151 125/125/89
f 59/59/38 58/58/37 138/138/117 139/139/116
f 47/47/14 77/77/74 157/157/154 127/127/92
f 19/19/63 20/20/77 100/100/158 99/99/143
f 67/67/56 61/61/39 141/141/119 147/147/134
f 40/40/49 39/39/2 119/119/84 120/120/129
