# Blender v3.6.4 OBJ File: ''
# www.blender.org
mtllib untitled.mtl
o leftlaser_leftlaser.002
v -0.200000 -950.000000 0.200000
v -0.200000 950.000000 0.200000
v -0.200000 -950.000000 -0.200000
v -0.200000 950.000000 -0.200000
v 0.200000 -950.000000 0.200000
v 0.200000 950.000000 0.200000
v 0.200000 -950.000000 -0.200000
v 0.200000 950.000000 -0.200000
v -5.000000 -1000.000000 -0.050000
v -5.000000 -1000.000000 0.000000
v -5.000000 -1000.000000 0.050000
v -5.000000 1000.000000 0.050000
v -5.000000 1000.000000 0.000000
v -5.000000 1000.000000 -0.050000
v 5.000000 -1000.000000 0.050000
v 5.000000 -1000.000000 0.000000
v 5.000000 -1000.000000 -0.050000
v 5.000000 1000.000000 -0.050000
v 5.000000 1000.000000 0.000000
v 5.000000 1000.000000 0.050000
v 0.050000 -1000.000000 -5.000000
v 0.000000 -1000.000000 -5.000000
v -0.050000 -1000.000000 -5.000000
v -0.050000 1000.000000 -5.000000
v 0.000000 1000.000000 -5.000000
v 0.050000 1000.000000 -5.000000
v -0.050000 -1000.000000 5.000000
v 0.000000 -1000.000000 5.000000
v 0.050000 -1000.000000 5.000000
v 0.050000 1000.000000 5.000000
v 0.000000 1000.000000 5.000000
v -0.050000 1000.000000 5.000000
v -0.050000 1000.000000 -0.050000
v 0.000000 1000.000000 -0.050000
v 0.050000 1000.000000 -0.050000
v -0.050000 1000.000000 0.000000
v 0.000000 1000.000000 0.000000
v 0.050000 1000.000000 0.000000
v -0.050000 1000.000000 0.050000
v 0.000000 1000.000000 0.050000
v 0.050000 1000.000000 0.050000
v 0.050000 -1000.000000 -0.050000
v 0.000000 -1000.000000 -0.050000
v -0.050000 -1000.000000 -0.050000
v 0.050000 -1000.000000 0.000000
v 0.000000 -1000.000000 0.000000
v -0.050000 -1000.000000 0.000000
v 0.050000 -1000.000000 0.050000
v 0.000000 -1000.000000 0.050000
v -0.050000 -1000.000000 0.050000
vt 0.375000 0.187500
vt 0.625000 0.187500
vt 0.625000 0.250000
vt 0.375000 0.250000
vt 0.375000 0.437500
vt 0.625000 0.437500
vt 0.625000 0.500000
vt 0.375000 0.500000
vt 0.375000 0.687500
vt 0.625000 0.687500
vt 0.625000 0.750000
vt 0.375000 0.750000
vt 0.375000 0.937500
vt 0.625000 0.937500
vt 0.625000 1.000000
vt 0.375000 1.000000
vt 0.312500 0.687500
vt 0.312500 0.750000
vt 0.812500 0.687500
vt 0.875000 0.687500
vt 0.875000 0.750000
vt 0.812500 0.750000
vt 0.812500 0.500000
vt 0.875000 0.500000
vt 0.875000 0.562500
vt 0.812500 0.562500
vt 0.875000 0.625000
vt 0.812500 0.625000
vt 0.312500 0.500000
vt 0.375000 0.562500
vt 0.312500 0.562500
vt 0.375000 0.625000
vt 0.312500 0.625000
vt 0.625000 0.562500
vt 0.625000 0.625000
vt 0.375000 0.000000
vt 0.625000 0.000000
vt 0.625000 0.062500
vt 0.375000 0.062500
vt 0.625000 0.125000
vt 0.375000 0.125000
vt 0.125000 0.625000
vt 0.187500 0.625000
vt 0.187500 0.687500
vt 0.125000 0.687500
vt 0.250000 0.625000
vt 0.250000 0.687500
vt 0.125000 0.562500
vt 0.187500 0.562500
vt 0.250000 0.562500
vt 0.125000 0.500000
vt 0.187500 0.500000
vt 0.250000 0.500000
vt 0.687500 0.625000
vt 0.687500 0.687500
vt 0.750000 0.625000
vt 0.750000 0.687500
vt 0.687500 0.562500
vt 0.750000 0.562500
vt 0.687500 0.500000
vt 0.750000 0.500000
vt 0.687500 0.750000
vt 0.750000 0.750000
vt 0.187500 0.750000
vt 0.125000 0.750000
vt 0.250000 0.750000
vt 0.625000 0.812500
vt 0.375000 0.812500
vt 0.625000 0.875000
vt 0.375000 0.875000
vt 0.625000 0.312500
vt 0.375000 0.312500
vt 0.625000 0.375000
vt 0.375000 0.375000
vn -0.0312 0.0000 -0.9995
vn 0.9995 0.0000 -0.0312
vn 0.0312 0.0000 0.9995
vn -0.9995 0.0000 0.0312
vn 0.7071 -0.0042 0.7071
vn -0.7071 0.0042 0.7071
vn -0.7071 0.0042 -0.7071
vn 0.0000 1.0000 0.0000
vn 0.7071 -0.0042 -0.7071
vn 0.0000 -1.0000 0.0000
vn 0.0312 0.0000 -0.9995
vn 1.0000 0.0000 0.0000
vn -0.0312 0.0000 0.9995
vn -1.0000 0.0000 0.0000
vn -0.7071 -0.0042 -0.7071
vn 0.7071 0.0042 -0.7071
vn 0.7071 0.0042 0.7071
vn -0.7071 -0.0042 0.7071
vn 0.9995 0.0000 0.0312
vn 0.0000 0.0000 1.0000
vn -0.9995 0.0000 -0.0312
vn 0.0000 0.0000 -1.0000
usemtl Default_OBJ
s off
f 9/1/1 14/2/1 4/3/1 3/4/1
f 21/5/2 26/6/2 8/7/2 7/8/2
f 15/9/3 20/10/3 6/11/3 5/12/3
f 27/13/4 32/14/4 2/15/4 1/16/4
f 48/17/5 15/9/5 5/12/5 29/18/5
f 39/19/6 12/20/6 2/21/6 32/22/6
f 24/23/7 4/24/7 14/25/7 33/26/7
f 33/26/8 14/25/8 13/27/8 36/28/8
f 36/28/8 13/27/8 12/20/8 39/19/8
f 21/29/9 7/8/9 17/30/9 42/31/9
f 42/31/10 17/30/10 16/32/10 45/33/10
f 45/33/10 16/32/10 15/9/10 48/17/10
f 7/8/11 8/7/11 18/34/11 17/30/11
f 17/30/12 18/34/12 19/35/12 16/32/12
f 16/32/12 19/35/12 20/10/12 15/9/12
f 1/36/13 2/37/13 12/38/13 11/39/13
f 11/39/14 12/38/14 13/40/14 10/41/14
f 10/41/14 13/40/14 14/2/14 9/1/14
f 10/42/10 47/43/10 50/44/10 11/45/10
f 47/43/10 46/46/10 49/47/10 50/44/10
f 46/46/10 45/33/10 48/17/10 49/47/10
f 9/48/10 44/49/10 47/43/10 10/42/10
f 44/49/10 43/50/10 46/46/10 47/43/10
f 43/50/10 42/31/10 45/33/10 46/46/10
f 3/51/15 23/52/15 44/49/15 9/48/15
f 23/52/10 22/53/10 43/50/10 44/49/10
f 22/53/10 21/29/10 42/31/10 43/50/10
f 19/35/8 38/54/8 41/55/8 20/10/8
f 38/54/8 37/56/8 40/57/8 41/55/8
f 37/56/8 36/28/8 39/19/8 40/57/8
f 18/34/8 35/58/8 38/54/8 19/35/8
f 35/58/8 34/59/8 37/56/8 38/54/8
f 34/59/8 33/26/8 36/28/8 37/56/8
f 8/7/16 26/60/16 35/58/16 18/34/16
f 26/60/8 25/61/8 34/59/8 35/58/8
f 25/61/8 24/23/8 33/26/8 34/59/8
f 20/10/17 41/55/17 30/62/17 6/11/17
f 41/55/8 40/57/8 31/63/8 30/62/8
f 40/57/8 39/19/8 32/22/8 31/63/8
f 11/45/18 50/44/18 27/64/18 1/65/18
f 50/44/10 49/47/10 28/66/10 27/64/10
f 49/47/10 48/17/10 29/18/10 28/66/10
f 5/12/19 6/11/19 30/67/19 29/68/19
f 29/68/20 30/67/20 31/69/20 28/70/20
f 28/70/20 31/69/20 32/14/20 27/13/20
f 3/4/21 4/3/21 24/71/21 23/72/21
f 23/72/22 24/71/22 25/73/22 22/74/22
f 22/74/22 25/73/22 26/6/22 21/5/22
